<svg xmlns="http://www.w3.org/2000/svg" viewBox="0 0 48 48" stroke-linecap="round"
    stroke-linejoin="round">
    <defs>
        <path id="face"
            d="M25.206 12.540 C 24.983 12.593,24.594 12.686,24.342 12.747 C 23.970 12.836,23.807 12.850,23.479 12.821 C 22.295 12.716,21.641 12.983,20.258 14.139 C 19.965 14.383,19.674 14.616,19.612 14.658 C 19.186 14.937,17.718 17.014,17.365 17.839 C 17.230 18.153,17.044 19.244,16.775 21.297 C 16.732 21.632,16.664 22.135,16.625 22.414 C 16.586 22.694,16.532 23.334,16.504 23.836 C 16.419 25.374,16.179 25.724,15.688 25.024 C 15.499 24.754,15.450 24.717,15.189 24.642 C 15.030 24.596,14.820 24.518,14.722 24.469 C 13.687 23.947,12.608 25.859,13.255 27.068 C 13.327 27.203,13.419 27.546,13.628 28.455 C 13.724 28.874,13.874 29.411,13.961 29.648 C 14.048 29.886,14.141 30.168,14.169 30.276 C 14.383 31.126,15.364 31.692,16.095 31.387 C 16.591 31.180,16.700 31.315,17.148 32.694 C 17.235 32.959,17.401 33.439,17.518 33.760 C 17.635 34.081,17.764 34.467,17.805 34.617 C 17.850 34.784,17.966 35.002,18.103 35.176 C 18.226 35.333,18.327 35.487,18.327 35.520 C 18.327 35.552,18.430 35.639,18.556 35.712 C 18.681 35.786,18.784 35.864,18.784 35.886 C 18.784 36.183,22.718 39.821,24.140 40.839 C 25.793 42.022,27.411 42.226,29.778 41.549 C 30.693 41.287,31.880 40.099,32.503 38.822 C 32.555 38.716,32.650 38.606,32.714 38.577 C 32.778 38.547,32.869 38.436,32.916 38.330 C 32.968 38.212,33.047 38.125,33.116 38.108 C 33.200 38.087,33.247 38.018,33.291 37.855 C 33.324 37.732,33.405 37.565,33.472 37.485 C 33.538 37.405,33.609 37.271,33.629 37.187 C 33.649 37.103,33.776 36.806,33.912 36.527 C 34.482 35.352,34.523 35.241,34.866 33.963 C 35.023 33.378,35.168 32.631,35.259 31.933 C 35.305 31.584,35.385 30.990,35.439 30.613 C 35.655 29.073,35.680 28.623,35.640 26.907 C 35.629 26.405,35.649 26.099,35.714 25.764 C 35.816 25.240,35.797 24.586,35.665 24.092 C 35.621 23.927,35.562 23.618,35.535 23.407 C 35.459 22.824,35.344 22.253,35.126 21.384 C 35.017 20.950,34.928 20.549,34.928 20.492 C 34.928 20.436,34.895 20.251,34.854 20.082 C 34.814 19.912,34.721 19.526,34.648 19.223 C 34.576 18.920,34.495 18.635,34.469 18.589 C 34.443 18.543,34.287 18.217,34.124 17.866 C 33.960 17.515,33.720 17.053,33.590 16.839 C 33.460 16.625,33.354 16.434,33.354 16.415 C 33.354 16.383,33.091 15.991,32.611 15.306 C 32.259 14.804,31.966 14.538,30.911 13.758 C 30.229 13.254,29.854 13.066,29.293 12.943 C 29.047 12.889,28.781 12.821,28.701 12.791 C 28.348 12.656,27.893 12.581,27.186 12.541 C 26.767 12.517,26.242 12.485,26.018 12.470 C 25.716 12.449,25.508 12.467,25.206 12.540 "
            transform="translate(-1.8927809735670102 -3.9858709033127298)"></path>
        <clipPath id="faceClip">
            <use href="#face"></use>
        </clipPath>
        <path id="body"
            d="M17.900 35.080 C 17.915 35.178,17.949 35.361,17.974 35.486 C 18.092 36.066,18.174 36.653,18.175 36.908 C 18.175 37.099,18.225 37.315,18.334 37.593 C 18.491 37.996,18.492 38.005,18.448 38.558 C 18.325 40.097,18.470 41.286,18.898 42.256 C 19.317 43.205,20.862 44.396,22.109 44.732 C 22.193 44.754,22.444 44.829,22.668 44.898 C 23.923 45.286,24.861 45.526,25.282 45.567 C 26.017 45.638,27.310 45.457,28.151 45.163 C 28.827 44.927,30.152 44.300,30.388 44.103 C 30.470 44.035,30.591 43.951,30.657 43.916 C 31.265 43.596,32.177 42.565,32.743 41.556 C 33.124 40.878,33.496 38.352,33.250 38.107 C 33.176 38.033,32.993 38.155,32.916 38.330 C 32.869 38.436,32.778 38.547,32.714 38.577 C 32.650 38.606,32.555 38.716,32.503 38.822 C 31.880 40.099,30.693 41.287,29.778 41.549 C 27.411 42.226,25.793 42.022,24.140 40.839 C 22.892 39.945,19.789 37.125,19.012 36.178 C 18.736 35.841,18.587 35.698,18.475 35.663 C 18.422 35.646,18.345 35.560,18.302 35.471 C 18.144 35.142,17.868 34.874,17.900 35.080 "
            transform="translate(-1.8927809735670102 -3.9858709033127298)"></path>
        <clipPath id="bodyClip">
            <use href="#body"></use>
        </clipPath>
    </defs>
    <use href="#body" fill="white"></use>
    <path d="M14.83635,26.48685c7.39313,23.0904 15.23916,21.93789 17.69718,-1.28715" fill="#d4d4d4"
        clip-path="url(#bodyClip)"></path>
    <use href="#body" fill="none" stroke="black" stroke-width="1"></use>
    <path
        d="M18.044 37.267 C 17.894 37.433,17.363 37.709,16.882 37.872 C 16.640 37.954,16.369 38.064,16.280 38.117 C 16.191 38.169,15.977 38.264,15.803 38.327 C 15.629 38.391,15.461 38.474,15.429 38.513 C 15.396 38.552,15.347 38.583,15.319 38.583 C 15.250 38.583,13.914 39.113,13.504 39.304 C 13.323 39.388,12.991 39.543,12.768 39.647 C 12.266 39.883,11.373 40.230,11.067 40.308 C 10.942 40.340,10.645 40.442,10.407 40.536 C 10.170 40.629,9.897 40.722,9.800 40.742 C 9.530 40.799,8.374 41.266,8.162 41.404 C 8.058 41.472,7.965 41.528,7.955 41.528 C 7.908 41.528,7.139 41.987,6.945 42.130 C 6.825 42.219,6.594 42.380,6.431 42.488 C 5.825 42.888,4.456 44.249,4.002 44.903 C 3.742 45.278,3.263 46.458,2.921 47.569 C 2.856 47.779,2.765 48.053,2.719 48.178 C 2.533 48.681,2.423 49.029,2.358 49.320 C 2.212 49.965,1.922 50.983,1.776 51.361 C 1.693 51.578,1.625 51.807,1.625 51.870 C 1.625 51.986,1.625 51.986,26.805 51.986 C 51.986 51.986,51.986 51.986,51.986 51.047 C 51.986 50.107,51.986 50.107,51.862 50.107 C 51.779 50.107,51.728 50.071,51.704 49.993 C 51.639 49.783,51.273 49.215,50.780 48.559 C 50.377 48.023,49.867 47.189,49.528 46.509 C 49.174 45.798,48.390 44.877,47.695 44.351 C 47.580 44.264,47.341 44.084,47.164 43.950 C 46.808 43.681,45.953 43.162,45.716 43.071 C 45.632 43.038,45.347 42.920,45.081 42.808 C 43.958 42.334,42.974 41.934,42.931 41.934 C 42.758 41.934,39.829 40.484,38.739 39.859 C 38.392 39.660,38.082 39.497,38.050 39.497 C 38.017 39.497,37.582 39.294,37.081 39.047 C 35.455 38.242,34.705 37.882,34.420 37.770 C 34.267 37.711,34.107 37.631,34.065 37.594 C 33.478 37.077,33.280 37.395,33.279 38.862 C 33.278 39.962,33.080 40.956,32.743 41.556 C 32.177 42.565,31.265 43.596,30.657 43.916 C 30.591 43.951,30.470 44.035,30.388 44.103 C 30.152 44.300,28.827 44.927,28.151 45.163 C 27.310 45.457,26.017 45.638,25.282 45.567 C 24.861 45.526,23.923 45.286,22.668 44.898 C 22.444 44.829,22.193 44.754,22.109 44.732 C 20.862 44.396,19.317 43.205,18.898 42.256 C 18.470 41.286,18.325 40.099,18.448 38.558 C 18.492 38.003,18.491 37.997,18.330 37.581 C 18.145 37.103,18.169 37.130,18.044 37.267 "
        stroke="black" stroke-width="0.5"
        transform="translate(-1.8927809735670102 -3.9858709033127298)"></path>
    <use href="#face" fill="white"></use>
    <ellipse cx="21.921781797923554" cy="21.752111792300884" rx="1" ry="1.25"
        clip-path="url(#faceClip)"></ellipse>
    <ellipse cx="30.60458553974051" cy="21.044088033790224" rx="1" ry="1.25"
        clip-path="url(#faceClip)"></ellipse>
    <path d="M24.20608,19.66937c-1.91489,-0.55165 -4.219,-1.23392 -5.46749,0.67411" fill="none"
        stroke="black" stroke-width="1" clip-path="url(#faceClip)"></path>
    <path d="M29.508,19.30441c1.05755,-0.5089 3.25917,-1.84247 3.5035,-0.02888" fill="none"
        stroke="black" stroke-width="1" clip-path="url(#faceClip)"></path>
    <path d="M28.07,21.67c0.69,3.47 3.13,7.54 -1.86,6.98" fill="white" stroke="black"
        stroke-width="1" clip-path="url(#faceClip)"></path>
    <path
        d="M27.3930608158,31.9882666371c-0.3071502794,0.0212599644 -0.6158269087,0.0021835037 -0.9236459928,-0.0041955035c-0.3036115609,-0.0062918138 -0.6068271228,-0.025969136 -0.9104025791,-0.0338119163c-0.2784511727,-0.0071937021 -0.5571208516,-0.0035019341 -0.8355559113,-0.0112943947c-0.2116293865,-0.0059227946 -0.4229919253,-0.0191755998 -0.6344351221,-0.0298457091c-0.1925712971,-0.009717772 -0.3852492416,-0.0179351038 -0.5776006125,-0.0313175438c-0.09933111,-0.006910752 -0.3889330049,0.009289942 -0.2972486374,-0.0295482436c0.1850438474,-0.0783859614 0.3960126298,-0.0691813789 0.5950922059,-0.0966205255c0.2393883348,-0.0329949045 0.4807323867,-0.0507560241 0.7199967465,-0.0846382418c0.2933659619,-0.0415435436 0.5853516802,-0.092378124 0.8775295384,-0.1415873995c0.363305125,-0.0611886956 0.7205836176,-0.1800585275 1.0888819027,-0.1896001968c0.3520097962,-0.009119676 0.6968574114,0.1628766231 1.0478192639,0.134243719c0.3052785487,-0.0249058732 0.5699000989,-0.2382029211 0.8716360024,-0.2908407339c0.1909227458,-0.0333064632 0.3870025764,0.0222624124 0.580203436,0.0375674187c0.1522020554,0.0120571587 0.304233265,0.0266916271 0.4558690377,0.0445082813c0.1073010516,0.012607485 0.2137742538,0.0314759024 0.3207298234,0.0467392729c0.0972627361,0.0138801297 0.239237728,-0.0422371741 0.2919221451,0.0406908069c0.0407690876,0.0641726397 -0.1381011483,0.0649418686 -0.2109123632,0.0868227543c-0.1407834744,0.0423075911 -0.2855449285,0.0700274012 -0.4282636159,0.1052594205c-0.1075450276,0.0265489304 -0.2151606542,0.0528207978 -0.3225270111,0.0800833007c-0.1458899391,0.0370444243 -0.2912706674,0.0760815654 -0.4372340611,0.112835496c-0.1844075973,0.0464342728 -0.3673993605,0.0994062433 -0.5538653413,0.1367256971c-0.2378145388,0.0475963962 -0.4760369886,0.1010771032 -0.7179888541,0.117824241z"
        fill="#d4d4d4" stroke="#d4d4d4" stroke-width="0.25" clip-path="url(#faceClip)"></path>
    <path
        d="M27.3929182803,32.0240554598c0.243250384,-0.0151031987 0.4838839255,-0.0615587437 0.723132529,-0.1080233712c0.1998480366,-0.0388126176 0.3948781443,-0.0992807282 0.592662904,-0.1475181187c0.1445268881,-0.0352484183 0.2901523906,-0.0659958766 0.4342563071,-0.102935471c0.1159592429,-0.0297249895 0.2318928916,-0.0601185086 0.3457727035,-0.0970171462c0.1229503917,-0.0398376312 0.2434735761,-0.0868742355 0.3641969754,-0.1330228709c0.071016051,-0.0271471303 0.2204015726,-0.1622561758 0.2109123632,-0.0868227543c-0.0183182436,0.145618853 -0.1574738442,0.2481004075 -0.2459327333,0.365213316c-0.1051375173,0.1391941563 -0.2131911526,0.2770543123 -0.3341374629,0.4027559459c-0.1597171079,0.1659968075 -0.3169936416,0.3390458927 -0.5061283195,0.4705471029c-0.2178179163,0.1514440394 -0.454019128,0.2825351755 -0.7041505093,0.3709333304c-0.2813632233,0.0994357032 -0.578239016,0.1603691015 -0.8754379838,0.1873041346c-0.347868053,0.0315271536 -0.7008152601,0.0270890174 -1.0478006723,-0.013001723c-0.3486515245,-0.0402832432 -0.6939632145,-0.119724818 -1.0281834397,-0.2268577556c-0.3163846502,-0.1014158164 -0.6121504584,-0.2586690816 -0.9147127308,-0.3959297315c-0.2261348371,-0.1025885166 -0.4538765887,-0.203081744 -0.671057468,-0.3234720839c-0.1813263064,-0.100514998 -0.3999866753,-0.1704396935 -0.5221387824,-0.3379549373c-0.0586663388,-0.0804530211 0.1982937326,0.0184868367 0.2972486374,0.0295482436c0.1919864048,0.021460682 0.3830528742,0.0516608596 0.5755415932,0.0680142561c0.2071926348,0.0176026072 0.4151815082,0.0242410093 0.622900586,0.0338026205c0.2785754624,0.0128232337 0.5571509637,0.026879936 0.8359463348,0.033350225c0.2992622263,0.0069452842 0.5986645678,0.0050945906 0.8980019844,0.006891285c0.3163664535,0.0018989067 0.6333430903,0.0238010136 0.9491071838,0.0041955035z"
        fill="#d4d4d4" stroke="#d4d4d4" stroke-width="0.25" clip-path="url(#faceClip)"></path>
    <use href="#face" fill="none" stroke="black" stroke-width="1"></use>
    <path
        d="M24.316 7.841 C 24.162 7.880,23.785 7.948,23.479 7.992 C 22.819 8.087,22.333 8.264,21.881 8.576 C 21.378 8.922,20.865 8.862,20.865 8.456 C 20.865 8.394,20.852 8.329,20.835 8.312 C 20.797 8.275,20.561 8.378,20.561 8.432 C 20.561 8.453,20.521 8.511,20.472 8.559 C 20.423 8.608,20.315 8.751,20.231 8.879 C 20.067 9.127,19.600 9.429,19.012 9.666 C 18.161 10.010,17.943 10.119,17.726 10.311 C 17.596 10.425,17.335 10.609,17.147 10.719 C 16.931 10.846,16.743 11.004,16.639 11.147 C 16.548 11.273,16.341 11.551,16.178 11.767 C 15.794 12.277,15.735 12.397,15.510 13.123 C 15.407 13.458,15.233 13.908,15.124 14.123 C 15.015 14.338,14.926 14.551,14.926 14.598 C 14.926 14.859,14.747 15.254,14.484 15.573 C 13.935 16.239,13.817 17.620,14.168 19.292 C 14.253 19.697,14.356 20.245,14.397 20.510 C 14.439 20.775,14.507 21.118,14.550 21.272 C 14.743 21.971,14.815 22.302,14.849 22.649 C 14.885 23.016,14.944 23.284,15.101 23.780 C 15.209 24.123,15.201 24.347,15.077 24.471 C 15.004 24.544,14.993 24.580,15.039 24.594 C 15.074 24.605,15.189 24.641,15.293 24.673 C 15.436 24.717,15.534 24.804,15.690 25.027 C 16.179 25.723,16.419 25.372,16.504 23.836 C 16.532 23.334,16.586 22.694,16.625 22.414 C 16.664 22.135,16.732 21.632,16.775 21.297 C 17.044 19.244,17.230 18.153,17.365 17.839 C 17.718 17.014,19.186 14.937,19.612 14.658 C 19.674 14.616,19.965 14.383,20.258 14.139 C 21.646 12.980,22.283 12.720,23.492 12.820 C 23.829 12.848,23.992 12.835,24.330 12.751 C 25.564 12.444,25.707 12.424,26.316 12.484 C 26.630 12.514,27.068 12.540,27.290 12.541 C 27.672 12.542,28.384 12.667,28.701 12.790 C 28.781 12.820,29.047 12.889,29.293 12.943 C 29.854 13.066,30.229 13.254,30.911 13.758 C 31.966 14.538,32.259 14.804,32.611 15.306 C 33.091 15.991,33.354 16.383,33.354 16.415 C 33.354 16.434,33.462 16.627,33.593 16.843 C 33.724 17.059,33.975 17.544,34.151 17.920 C 34.533 18.737,34.531 18.742,34.371 17.058 C 34.260 15.889,34.222 15.756,33.829 15.153 C 33.666 14.903,33.511 14.582,33.430 14.326 C 33.357 14.095,33.255 13.833,33.204 13.743 C 33.152 13.654,33.072 13.432,33.027 13.252 C 32.935 12.888,32.785 12.603,32.463 12.184 C 32.214 11.860,31.578 10.672,31.577 10.530 C 31.574 10.006,30.600 9.089,30.010 9.056 C 29.687 9.038,29.672 9.028,29.757 8.892 C 29.838 8.762,29.828 8.752,29.533 8.674 C 29.343 8.623,29.245 8.622,29.064 8.671 C 28.601 8.795,28.253 8.714,28.136 8.456 C 27.999 8.156,26.552 7.933,25.758 8.089 C 25.565 8.126,25.532 8.116,25.359 7.964 C 25.135 7.767,24.777 7.725,24.316 7.841 "
        stroke="black" stroke-width="1"
        transform="translate(-1.8927809735670102 -3.9858709033127298)"></path>
    <path d="" stroke="black" stroke-width="0.5"
        transform="translate(-1.8927809735670102 -3.9858709033127298)"></path>
</svg>