<svg xmlns="http://www.w3.org/2000/svg" width="400" height="100" viewBox="0 -5 400 110"
    stroke-width="2" stroke="#000">
    <path
        d="M 48.793 13.406 L 48.793 5.691 A 0.211 0.211 0 0 0 48.751 5.572 Q 48.661 5.44 48.378 5.29 A 3.083 3.083 0 0 0 48.304 5.251 A 4.491 4.491 0 0 0 47.709 5.007 A 5.871 5.871 0 0 0 47.181 4.861 Q 46.547 4.714 45.912 4.616 Q 45.277 4.519 44.887 4.616 A 44.005 44.005 0 0 0 34.387 8.686 A 37.84 37.84 0 0 0 28.334 12.82 Q 21.449 18.581 16.859 26.491 Q 10.461 37.664 7.471 45.195 A 70.604 70.604 0 0 0 7.338 45.534 Q 4.756 52.136 4.155 56.39 A 19.621 19.621 0 0 0 4.017 57.644 A 17.814 17.814 0 0 0 3.973 58.457 Q 3.899 60.921 4.599 62.478 A 4.444 4.444 0 0 0 5.629 63.943 A 6.006 6.006 0 0 0 8.638 65.426 Q 9.402 65.573 10.267 65.573 A 10.813 10.813 0 0 0 10.902 65.554 Q 14.222 65.359 18.617 63.552 A 66.542 66.542 0 0 0 25.01 60.501 A 77.984 77.984 0 0 0 27.552 59.06 Q 32.093 56.374 36.39 53.103 Q 40.687 49.831 43.91 46.804 Q 46.304 44.555 47.863 42.602 A 22.75 22.75 0 0 0 48.841 41.286 A 12.718 12.718 0 0 0 49.391 40.418 Q 50.325 38.788 50.053 37.85 A 1.34 1.34 0 0 0 49.964 37.624 A 7.024 7.024 0 0 0 48.668 37.507 Q 47.66 37.507 46.547 37.771 A 38.557 38.557 0 0 0 45.016 38.165 Q 44.324 38.359 43.718 38.562 A 21.374 21.374 0 0 0 43.324 38.699 Q 42.445 38.991 40.052 39.773 A 802.56 802.56 0 0 0 37.599 40.578 A 931.236 931.236 0 0 0 35.023 41.433 L 30.043 43.093 A 104.399 104.399 0 0 0 28.993 43.449 Q 27.707 43.893 27.033 44.173 A 9.956 9.956 0 0 0 26.82 44.265 A 3.607 3.607 0 0 1 26.331 44.403 Q 26.053 44.46 25.797 44.46 A 1.996 1.996 0 0 1 24.525 44.021 Q 23.597 43.288 23.256 42.165 Q 23.071 41.561 23.071 40.984 A 3.504 3.504 0 0 1 23.207 40.017 A 1.886 1.886 0 0 1 23.613 39.26 Q 23.903 38.938 24.356 38.768 A 2.516 2.516 0 0 1 24.574 38.699 A 12.959 12.959 0 0 0 25.471 38.491 Q 26.937 38.104 29.525 37.191 A 131.208 131.208 0 0 0 30.091 36.99 A 604 604 0 0 1 34.163 35.549 Q 36.315 34.796 38.707 33.974 A 986.614 986.614 0 0 1 39.027 33.865 Q 44.007 32.156 49.281 30.495 A 114.624 114.624 0 0 1 53.057 29.374 Q 54.931 28.854 56.612 28.468 A 60.551 60.551 0 0 1 58.558 28.054 Q 62.562 27.273 64.662 27.81 A 2.407 2.407 0 0 1 65.265 28.045 Q 66.497 28.752 65.577 30.801 A 7.585 7.585 0 0 1 65.492 30.984 A 40.882 40.882 0 0 1 64.971 31.55 Q 64.036 32.549 62.269 34.353 Q 59.925 36.745 57.289 39.382 A 745.36 745.36 0 0 1 54.713 41.946 A 634.546 634.546 0 0 1 52.259 44.363 A 319.43 319.43 0 0 1 51.168 45.427 Q 49.627 46.923 48.89 47.585 A 7.162 7.162 0 0 0 48.694 47.74 Q 48.161 48.171 46.693 49.441 Q 44.945 50.953 42.739 52.785 A 361.632 361.632 0 0 1 42.591 52.907 A 559.734 559.734 0 0 0 38.05 56.716 Q 36.331 58.174 35.184 59.088 A 48.453 48.453 0 0 1 34.535 59.597 A 1172.02 1172.02 0 0 0 33.857 60.171 Q 32.849 61.025 31.505 62.167 A 3377.257 3377.257 0 0 0 31.312 62.331 A 60.618 60.618 0 0 1 28.699 64.426 A 74.401 74.401 0 0 1 26.966 65.7 Q 24.574 67.409 21.937 68.923 A 30.077 30.077 0 0 1 18.003 70.828 A 26.401 26.401 0 0 1 16.664 71.316 A 17.241 17.241 0 0 1 13.425 72.071 A 14.692 14.692 0 0 1 11.537 72.195 A 7.636 7.636 0 0 1 6.996 70.73 A 17.345 17.345 0 0 1 3.07 66.704 A 15.387 15.387 0 0 1 1.136 62.82 Q 0 59.411 0 55.562 A 27.909 27.909 0 0 1 0.16 52.615 Q 0.746 47.097 3.089 41.091 A 77.363 77.363 0 0 1 8.9 29.324 Q 12.367 23.562 16.713 18.337 A 85.462 85.462 0 0 1 22.221 12.302 A 71.311 71.311 0 0 1 25.599 9.157 A 56.309 56.309 0 0 1 30.397 5.396 A 43.144 43.144 0 0 1 34.584 2.81 A 26.586 26.586 0 0 1 37.813 1.324 Q 40.419 0.344 42.738 0.222 Q 44.496 -0.266 46.302 0.32 A 9.777 9.777 0 0 1 49.574 2.126 A 10.94 10.94 0 0 1 52.015 5.007 Q 52.992 6.667 53.285 8.279 Q 53.373 8.762 53.373 9.228 A 4.722 4.722 0 0 1 52.894 11.306 A 3.75 3.75 0 0 1 51.582 12.79 Q 51.051 13.149 50.355 13.406 Q 50.062 13.601 49.427 13.601 A 3.149 3.149 0 0 1 49.228 13.595 Q 48.793 13.567 48.793 13.406 Z M 135.804 99.343 Q 132.777 98.269 130.873 96.12 A 16.606 16.606 0 0 1 128.285 92.252 A 15.43 15.43 0 0 1 127.943 91.482 A 17.617 17.617 0 0 1 126.689 86.611 A 16.645 16.645 0 0 1 126.673 86.452 A 22.37 22.37 0 0 1 126.586 85.17 Q 126.518 83.405 126.771 81.96 A 9.957 9.957 0 0 1 127.048 80.778 Q 127.385 79.671 127.943 78.982 A 2.41 2.41 0 0 1 128.296 78.623 Q 128.995 78.057 129.847 78.445 A 64.998 64.998 0 0 0 129.843 79.192 Q 129.843 86.545 131.563 90.65 A 13.097 13.097 0 0 0 131.849 91.286 A 14.624 14.624 0 0 0 133.285 93.688 Q 135.002 95.983 137.318 96.755 Q 140.658 97.868 144.861 96.247 A 18.225 18.225 0 0 0 144.935 96.218 A 29.11 29.11 0 0 0 149.476 93.944 A 39.35 39.35 0 0 0 153.529 91.091 A 52.578 52.578 0 0 0 159.32 85.678 A 62.903 62.903 0 0 0 161.83 82.79 A 59.636 59.636 0 0 0 168.173 73.383 A 55.275 55.275 0 0 0 168.519 72.732 A 45.95 45.95 0 0 0 171.327 66.239 A 38.801 38.801 0 0 0 172.425 62.38 Q 173.597 57.253 172.328 53.054 Q 163.539 59.402 158.656 61.062 A 21.609 21.609 0 0 1 157.157 61.515 Q 153.729 62.409 152.107 61.378 A 2.778 2.778 0 0 1 151.869 61.208 Q 149.998 59.721 150.625 55.925 A 14.447 14.447 0 0 1 150.648 55.788 Q 151.236 52.431 152.977 48.498 A 47.672 47.672 0 0 1 153.578 47.195 A 58.496 58.496 0 0 1 157.22 40.726 A 69.872 69.872 0 0 1 159.242 37.771 A 56.632 56.632 0 0 1 162.709 33.413 A 42.673 42.673 0 0 1 166.273 29.812 Q 169.018 27.363 171.623 26.268 A 12.07 12.07 0 0 1 173.256 25.71 A 6.316 6.316 0 0 1 174.204 25.536 Q 176.949 25.254 178.871 27.761 Q 181.117 30.788 181.703 35.915 A 37.097 37.097 0 0 1 181.933 39.573 Q 181.968 41.95 181.731 44.537 A 57.377 57.377 0 0 1 181.41 47.292 A 73.163 73.163 0 0 1 179.796 55.334 A 88.927 88.927 0 0 1 178.334 60.378 Q 176.136 67.214 172.914 73.708 Q 169.691 80.202 165.541 85.769 A 52.335 52.335 0 0 1 160.671 91.444 A 42.624 42.624 0 0 1 156.605 95.046 A 29.083 29.083 0 0 1 150.751 98.609 A 24.867 24.867 0 0 1 146.547 100.075 Q 141.875 101.243 137.05 99.767 A 21.269 21.269 0 0 1 135.804 99.343 Z M 150.843 59.304 L 152.015 60.378 A 12.701 12.701 0 0 1 150.019 62.434 Q 148.935 63.339 147.53 64.187 A 30.201 30.201 0 0 1 144.984 65.554 A 58.933 58.933 0 0 1 136.534 68.815 A 66.765 66.765 0 0 1 134.437 69.411 A 64.483 64.483 0 0 1 126.106 71.078 A 57.025 57.025 0 0 1 123.402 71.365 A 39.299 39.299 0 0 1 121.708 71.468 Q 117.521 71.629 114.906 70.73 A 11.089 11.089 0 0 1 112.759 69.767 A 7.84 7.84 0 0 1 110.463 67.751 Q 108.949 65.749 108.461 63.308 A 15.041 15.041 0 0 1 108.173 60.351 A 17.181 17.181 0 0 1 108.314 58.181 A 28.73 28.73 0 0 1 109.389 53.207 A 26.705 26.705 0 0 1 109.437 53.054 Q 112.172 50.136 115.546 46.41 A 742.784 742.784 0 0 0 116.029 45.876 A 148.315 148.315 0 0 1 123.793 37.917 A 99.95 99.95 0 0 1 132.338 30.642 A 39.655 39.655 0 0 1 137.807 27.134 A 32.888 32.888 0 0 1 141.371 25.515 Q 142.629 24.964 143.476 25.332 A 1.737 1.737 0 0 1 143.861 25.564 Q 144.789 26.296 145.179 27.859 A 11.135 11.135 0 0 1 145.44 29.344 Q 145.527 30.135 145.527 31.022 A 18.895 18.895 0 0 1 145.521 31.472 Q 145.472 33.523 145.179 35.476 A 27.079 27.079 0 0 1 144.838 37.331 A 20.424 20.424 0 0 1 144.398 38.991 A 14.738 14.738 0 0 1 144.154 39.712 Q 143.897 40.406 143.639 40.83 A 2.565 2.565 0 0 1 143.422 41.14 A 7.16 7.16 0 0 1 142.602 41.936 Q 141.668 42.724 140.13 43.646 A 39.396 39.396 0 0 1 138.881 44.363 A 639.137 639.137 0 0 1 135.328 46.303 A 850.014 850.014 0 0 1 131.41 48.415 A 342.994 342.994 0 0 0 123.207 52.956 A 54.958 54.958 0 0 0 120.116 54.853 Q 118.034 56.232 116.468 57.595 Q 113.832 59.89 113.343 62.136 A 2.745 2.745 0 0 0 113.279 62.72 Q 113.279 64.524 115.786 66.064 A 11.928 11.928 0 0 0 116.078 66.238 A 19.761 19.761 0 0 0 117.588 66.354 Q 120.113 66.456 123.325 66.014 A 49.261 49.261 0 0 0 124.134 65.896 Q 128.871 65.163 133.802 63.943 A 269.221 269.221 0 0 0 142.171 61.732 A 245.218 245.218 0 0 0 143.324 61.404 Q 147.43 60.224 150.207 59.475 A 220.481 220.481 0 0 1 150.843 59.304 Z M 354.554 59.304 L 355.726 60.378 A 12.701 12.701 0 0 1 353.73 62.434 Q 352.646 63.339 351.241 64.187 A 30.201 30.201 0 0 1 348.695 65.554 A 58.933 58.933 0 0 1 340.245 68.815 A 66.765 66.765 0 0 1 338.148 69.411 A 64.483 64.483 0 0 1 329.817 71.078 A 57.025 57.025 0 0 1 327.113 71.365 A 39.299 39.299 0 0 1 325.419 71.468 Q 321.231 71.629 318.617 70.73 A 11.089 11.089 0 0 1 316.47 69.767 A 7.84 7.84 0 0 1 314.173 67.751 Q 312.66 65.749 312.172 63.308 A 15.041 15.041 0 0 1 311.884 60.351 A 17.181 17.181 0 0 1 312.025 58.181 A 28.73 28.73 0 0 1 313.1 53.207 A 26.705 26.705 0 0 1 313.148 53.054 Q 315.883 50.136 319.257 46.41 A 742.784 742.784 0 0 0 319.74 45.876 A 148.315 148.315 0 0 1 327.504 37.917 A 99.95 99.95 0 0 1 336.048 30.642 A 39.655 39.655 0 0 1 341.518 27.134 A 32.888 32.888 0 0 1 345.082 25.515 Q 346.34 24.964 347.187 25.332 A 1.737 1.737 0 0 1 347.572 25.564 Q 348.5 26.296 348.89 27.859 A 11.135 11.135 0 0 1 349.151 29.344 Q 349.237 30.135 349.237 31.022 A 18.895 18.895 0 0 1 349.232 31.472 Q 349.183 33.523 348.89 35.476 A 27.079 27.079 0 0 1 348.548 37.331 A 20.424 20.424 0 0 1 348.109 38.991 A 14.738 14.738 0 0 1 347.865 39.712 Q 347.608 40.406 347.35 40.83 A 2.565 2.565 0 0 1 347.132 41.14 A 7.16 7.16 0 0 1 346.313 41.936 Q 345.379 42.724 343.841 43.646 A 39.396 39.396 0 0 1 342.591 44.363 A 639.137 639.137 0 0 1 339.039 46.303 A 850.014 850.014 0 0 1 335.121 48.415 A 342.994 342.994 0 0 0 326.918 52.956 A 54.958 54.958 0 0 0 323.827 54.853 Q 321.745 56.232 320.179 57.595 Q 317.543 59.89 317.054 62.136 A 2.745 2.745 0 0 0 316.99 62.72 Q 316.99 64.524 319.497 66.064 A 11.928 11.928 0 0 0 319.789 66.238 A 19.761 19.761 0 0 0 321.299 66.354 Q 323.824 66.456 327.035 66.014 A 49.261 49.261 0 0 0 327.845 65.896 Q 332.582 65.163 337.513 63.943 A 269.221 269.221 0 0 0 345.882 61.732 A 245.218 245.218 0 0 0 347.035 61.404 Q 351.141 60.224 353.918 59.475 A 220.481 220.481 0 0 1 354.554 59.304 Z M 355.629 70.73 Q 354.457 69.949 355.58 68.63 A 8.761 8.761 0 0 1 356.464 67.744 Q 357.45 66.877 358.974 65.933 A 30.363 30.363 0 0 1 359.193 65.798 Q 361.518 64.385 364.566 62.844 A 112.278 112.278 0 0 1 365.004 62.624 A 382.866 382.866 0 0 1 369.847 60.244 A 336.284 336.284 0 0 1 371.4 59.499 A 3139.549 3139.549 0 0 0 373.951 58.283 Q 375.502 57.543 376.82 56.911 A 46.155 46.155 0 0 0 377.766 56.446 Q 379.313 55.66 379.847 55.202 A 21.968 21.968 0 0 0 381.11 54.051 Q 383.078 52.097 383.213 50.696 A 2.218 2.218 0 0 0 383.216 50.661 Q 383.363 48.855 381.605 47.732 A 9.518 9.518 0 0 0 380.123 46.973 Q 379.358 46.656 378.432 46.393 A 23.094 23.094 0 0 0 376.673 45.974 Q 373.5 45.339 370.131 44.802 A 224.528 224.528 0 0 1 365.242 43.969 A 197.255 197.255 0 0 1 363.685 43.679 A 23.766 23.766 0 0 1 361.951 43.286 Q 360.325 42.847 359.284 42.258 A 6.388 6.388 0 0 1 359.047 42.116 A 3.205 3.205 0 0 1 358.465 41.66 Q 357.716 40.904 357.932 39.857 A 2.877 2.877 0 0 1 358.021 39.529 A 3.349 3.349 0 0 1 358.52 38.622 Q 359.432 37.385 361.756 35.736 A 36.515 36.515 0 0 1 362.269 35.378 Q 363.316 34.631 365.107 33.368 A 1476.509 1476.509 0 0 1 366.273 32.546 A 135.268 135.268 0 0 1 369.741 30.189 A 162.348 162.348 0 0 1 371.986 28.738 Q 375.062 26.784 378.089 25.222 A 37.761 37.761 0 0 1 379.886 24.35 Q 381.758 23.507 383.168 23.171 Q 384.242 22.976 385.365 23.366 A 5.115 5.115 0 0 1 386.321 23.808 A 3.904 3.904 0 0 1 387.172 24.49 Q 387.855 25.222 387.806 26.101 A 1.364 1.364 0 0 1 387.502 26.87 Q 387.172 27.295 386.488 27.663 A 585.785 585.785 0 0 1 378.386 32.131 A 508.057 508.057 0 0 1 375.795 33.523 A 111.07 111.07 0 0 0 367.108 38.693 A 124.277 124.277 0 0 0 365.492 39.773 A 1.942 1.942 0 0 0 365.405 40.073 Q 365.375 40.224 365.375 40.366 A 1.26 1.26 0 0 0 365.638 41.14 A 3.155 3.155 0 0 0 366.179 41.706 A 2.675 2.675 0 0 0 366.664 42.019 A 125.014 125.014 0 0 1 372.081 42.693 Q 378.485 43.642 382.24 45.046 Q 386.339 46.579 388.094 48.352 A 5.362 5.362 0 0 1 388.881 49.343 Q 390.297 51.687 388.539 54.324 A 16.438 16.438 0 0 1 386.674 56.612 Q 385.661 57.661 384.368 58.693 A 31.529 31.529 0 0 1 383.314 59.499 A 50.308 50.308 0 0 1 378.836 62.411 A 63.628 63.628 0 0 1 375.355 64.284 A 98.046 98.046 0 0 1 369.873 66.825 A 81.309 81.309 0 0 1 366.713 68.093 A 90.518 90.518 0 0 1 363.744 69.155 Q 362.273 69.651 360.958 70.028 A 46.254 46.254 0 0 1 359.437 70.437 A 26.599 26.599 0 0 1 358.533 70.647 Q 356.536 71.073 355.827 70.828 A 0.774 0.774 0 0 1 355.629 70.73 Z M 261.52 66.857 A 6.232 6.232 0 0 0 264.027 69.558 Q 266.588 71.095 269.423 70.74 A 9.854 9.854 0 0 0 271.351 70.29 A 18.92 18.92 0 0 0 272.236 69.966 Q 275.726 68.592 279.408 65.603 A 59.823 59.823 0 0 0 283.03 62.402 A 75.279 75.279 0 0 0 287.66 57.546 A 295.928 295.928 0 0 0 295.57 48.122 A 1126.259 1126.259 0 0 0 299.232 43.545 A 895.73 895.73 0 0 0 302.601 39.284 A 91.827 91.827 0 0 1 302.894 38.914 Q 304.936 36.342 306.617 34.614 A 26.864 26.864 0 0 1 308.168 33.132 A 28.499 28.499 0 0 0 308.309 32.696 Q 309.38 29.303 308.461 28.982 A 0.818 0.818 0 0 0 308.392 28.961 Q 307.589 28.757 305.864 29.981 A 18.29 18.29 0 0 0 304.994 30.642 A 31.963 31.963 0 0 0 304.764 30.828 Q 303.133 32.165 301.039 34.225 A 110.091 110.091 0 0 0 298.89 36.404 A 1083.831 1083.831 0 0 0 295.167 40.298 A 1306.369 1306.369 0 0 0 291.224 44.46 A 1907.538 1907.538 0 0 1 283.021 53.103 A 201.764 201.764 0 0 1 282.473 53.675 Q 280.563 55.659 278.79 57.389 A 120.944 120.944 0 0 1 275.355 60.622 Q 272.938 62.804 271.029 64.156 A 21.66 21.66 0 0 1 269.398 65.212 A 8.542 8.542 0 0 1 269.04 65.409 Q 267.367 66.275 266.56 65.639 A 1.482 1.482 0 0 1 266.175 65.163 A 52.909 52.909 0 0 1 266.089 62.144 A 50.704 50.704 0 0 1 266.224 58.425 A 203.602 203.602 0 0 1 266.81 51.882 A 209.148 209.148 0 0 0 267.396 45.388 A 40.358 40.358 0 0 0 267.507 42.384 A 43.138 43.138 0 0 0 267.347 38.699 L 267.006 38.259 A 7.434 7.434 0 0 0 266.835 38.048 Q 266.683 37.867 266.502 37.672 A 14.274 14.274 0 0 0 266.127 37.282 A 6.69 6.69 0 0 0 266.11 37.266 Q 265.858 37.016 265.606 36.819 A 4.084 4.084 0 0 0 265.052 36.452 Q 264.664 36.241 264.302 36.335 A 1.044 1.044 0 0 0 264.027 36.452 A 35.86 35.86 0 0 1 263.912 37.004 Q 263.614 38.381 263.05 40.554 Q 262.703 41.893 262.356 43.408 A 143.516 143.516 0 0 0 261.683 46.511 Q 261 49.831 260.511 53.347 Q 260.104 56.277 260.104 59.003 A 35.734 35.734 0 0 0 260.121 60.085 A 22.727 22.727 0 0 0 260.356 62.774 A 17.192 17.192 0 0 0 261.097 65.847 A 8.386 8.386 0 0 0 261.52 66.857 Z M 239.222 60.769 L 261.293 3.347 A 7.867 7.867 0 0 1 261.487 2.887 Q 262.06 1.652 262.562 2.029 Q 263.057 2.4 263.378 3.468 A 7.867 7.867 0 0 1 263.49 3.884 A 11.724 11.724 0 0 1 263.746 5.398 Q 263.832 6.203 263.832 7.107 Q 263.832 8.306 263.659 9.183 A 5.41 5.41 0 0 1 263.441 9.988 A 5037.732 5037.732 0 0 1 257.142 24.88 Q 253.968 32.351 251.088 39.919 A 368.552 368.552 0 0 0 245.668 55.154 Q 243.129 62.82 241.371 70.73 Q 240.72 71.137 240.238 71.137 A 1.037 1.037 0 0 1 240.052 71.12 Q 239.515 71.023 239.076 70.583 Q 238.636 70.144 238.392 69.558 Q 238.148 68.972 238.05 68.484 A 2.656 2.656 0 0 1 237.974 68.108 Q 237.898 67.544 237.985 66.725 A 10.521 10.521 0 0 1 238.002 66.579 Q 238.148 65.359 238.392 64.089 A 27.707 27.707 0 0 1 238.632 62.963 Q 238.774 62.362 238.929 61.843 A 62.117 62.117 0 0 0 238.998 61.613 Q 239.222 60.854 239.222 60.769 Z M 61.931 70.665 A 0.11 0.11 0 0 0 61.976 70.73 A 8.614 8.614 0 0 1 61.983 70.733 Q 62.374 70.929 63.148 71.365 A 27.166 27.166 0 0 0 63.366 71.486 Q 63.819 71.735 63.968 71.789 A 0.202 0.202 0 0 0 64.027 71.804 A 0.42 0.42 0 0 0 64.107 71.796 Q 64.741 71.673 65.921 69.656 A 29.731 29.731 0 0 0 66.517 68.581 Q 68.226 65.359 70.814 60.476 A 165.374 165.374 0 0 1 73.634 55.386 A 221.078 221.078 0 0 1 76.918 49.88 A 77.406 77.406 0 0 1 84.73 39.284 A 51.308 51.308 0 0 1 85.817 38.088 A 45.468 45.468 0 0 1 94.105 31.081 Q 99.183 27.761 105.043 27.663 Q 105.968 26.239 105.882 25.412 A 1.035 1.035 0 0 0 105.677 24.88 A 1.651 1.651 0 0 0 105.612 24.8 Q 105.138 24.255 104.155 24.08 A 5.636 5.636 0 0 0 103.334 24.001 A 12.21 12.21 0 0 0 102.985 23.996 Q 101.385 23.996 99.232 24.392 A 50.781 50.781 0 0 0 94.593 25.466 A 81.24 81.24 0 0 0 94.449 25.507 Q 92.291 26.121 90.589 26.736 A 39.178 39.178 0 0 0 89.975 26.963 Q 89.08 27.303 88.672 27.522 A 1.856 1.856 0 0 0 88.441 27.663 A 37.805 37.805 0 0 0 81.166 33.669 Q 77.894 37.136 75.16 40.945 A 1.801 1.801 0 0 1 75.088 40.996 Q 74.482 41.405 73.935 41.013 A 1.644 1.644 0 0 1 73.695 40.798 A 16.372 16.372 0 0 1 73.161 40.196 A 20.21 20.21 0 0 1 72.328 39.138 Q 71.986 38.674 71.644 38.283 A 9.519 9.519 0 0 0 70.961 37.575 Q 70.385 37.041 69.809 37.441 A 1.598 1.598 0 0 0 69.593 37.624 A 4.992 4.992 0 0 0 69.181 38.151 Q 68.401 39.284 67.591 41.482 A 40.916 40.916 0 0 0 67.456 41.855 Q 66.984 43.176 66.543 44.687 A 69.76 69.76 0 0 0 65.687 47.927 Q 64.808 51.589 64.027 55.593 Q 63.246 59.597 62.757 62.917 Q 62.391 65.407 62.162 67.266 A 99.35 99.35 0 0 0 62.025 68.435 A 40.987 40.987 0 0 0 61.98 68.86 Q 61.828 70.373 61.931 70.665 Z M 155.583 51.927 A 14.996 14.996 0 0 0 155.58 51.98 A 24.987 24.987 0 0 0 155.538 52.994 A 29.707 29.707 0 0 0 155.531 53.64 A 28.465 28.465 0 0 0 155.55 54.7 A 23.908 23.908 0 0 0 155.58 55.3 A 12.235 12.235 0 0 0 155.606 55.65 Q 155.652 56.152 155.726 56.374 A 6.68 6.68 0 0 0 157.352 56.576 Q 159.579 56.576 161.902 55.087 A 13.031 13.031 0 0 0 162.172 54.909 A 26.121 26.121 0 0 0 166.667 51.025 A 31.308 31.308 0 0 0 168.275 49.148 Q 171.058 45.632 172.963 41.726 Q 174.823 37.91 175.285 35.306 A 11.782 11.782 0 0 0 175.306 35.183 A 8.384 8.384 0 0 0 175.368 34.744 Q 175.518 33.414 175.101 32.767 A 1.28 1.28 0 0 0 174.281 32.204 Q 172.816 31.863 168.91 35.378 A 134.979 134.979 0 0 0 168.275 35.964 Q 167.57 36.619 166.657 37.481 A 441.867 441.867 0 0 0 165.785 38.308 A 89.569 89.569 0 0 0 162.828 41.256 A 101.881 101.881 0 0 0 161.83 42.312 A 52.608 52.608 0 0 0 158.119 46.755 A 24.18 24.18 0 0 0 157.002 48.381 Q 156.501 49.183 156.145 49.922 A 11.21 11.21 0 0 0 155.726 50.906 Q 155.632 51.188 155.583 51.927 Z M 137.139 34.015 A 32.448 32.448 0 0 0 136.781 34.255 A 51.26 51.26 0 0 0 136.058 34.756 Q 134.989 35.508 133.61 36.547 A 145.069 145.069 0 0 0 133.412 36.697 A 249.169 249.169 0 0 0 131.337 38.283 A 312.73 312.73 0 0 0 129.115 40.017 A 303.79 303.79 0 0 0 126.918 41.762 A 235.378 235.378 0 0 0 124.916 43.386 A 160.796 160.796 0 0 0 123.577 44.496 Q 123.056 44.933 122.597 45.327 A 77.055 77.055 0 0 0 121.742 46.072 A 36.983 36.983 0 0 0 121.484 46.302 Q 120.493 47.195 120.668 47.195 Q 122.23 47.488 124.72 46.755 A 27.779 27.779 0 0 0 127.828 45.627 A 34.807 34.807 0 0 0 129.896 44.656 A 42.742 42.742 0 0 0 135.023 41.579 A 27.429 27.429 0 0 0 136.71 40.304 Q 137.995 39.248 138.881 38.21 A 9.607 9.607 0 0 0 139.561 37.319 Q 140.31 36.198 140.345 35.281 A 1.459 1.459 0 0 0 140.346 35.224 Q 140.346 33.998 138.246 33.425 Q 138.162 33.341 137.139 34.015 Z M 340.85 34.015 A 32.448 32.448 0 0 0 340.492 34.255 A 51.26 51.26 0 0 0 339.769 34.756 Q 338.7 35.508 337.321 36.547 A 145.069 145.069 0 0 0 337.123 36.697 A 249.169 249.169 0 0 0 335.047 38.283 A 312.73 312.73 0 0 0 332.826 40.017 A 303.79 303.79 0 0 0 330.629 41.762 A 235.378 235.378 0 0 0 328.627 43.386 A 160.796 160.796 0 0 0 327.288 44.496 Q 326.767 44.933 326.308 45.327 A 77.055 77.055 0 0 0 325.453 46.072 A 36.983 36.983 0 0 0 325.195 46.302 Q 324.204 47.195 324.379 47.195 Q 325.941 47.488 328.431 46.755 A 27.779 27.779 0 0 0 331.539 45.627 A 34.807 34.807 0 0 0 333.607 44.656 A 42.742 42.742 0 0 0 338.734 41.579 A 27.429 27.429 0 0 0 340.421 40.304 Q 341.706 39.248 342.591 38.21 A 9.607 9.607 0 0 0 343.272 37.319 Q 344.021 36.198 344.056 35.281 A 1.459 1.459 0 0 0 344.057 35.224 Q 344.057 33.998 341.957 33.425 Q 341.873 33.341 340.85 34.015 Z" />
</svg>